<?xml version="1.0" encoding="utf-8" standalone="no"?>
<!DOCTYPE svg PUBLIC "-//W3C//DTD SVG 1.1//EN"
  "http://www.w3.org/Graphics/SVG/1.1/DTD/svg11.dtd">
<svg xmlns:xlink="http://www.w3.org/1999/xlink" width="654.168162pt" height="451.245255pt" viewBox="0 0 654.168162 451.245255" xmlns="http://www.w3.org/2000/svg" version="1.1">
 <metadata>
  <rdf:RDF xmlns:dc="http://purl.org/dc/elements/1.1/" xmlns:cc="http://creativecommons.org/ns#" xmlns:rdf="http://www.w3.org/1999/02/22-rdf-syntax-ns#">
   <cc:Work>
    <dc:type rdf:resource="http://purl.org/dc/dcmitype/StillImage"/>
    <dc:date>2026-10-08T11:26:50.832464</dc:date>
    <dc:format>image/svg+xml</dc:format>
    <dc:creator>
     <cc:Agent>
      <dc:title>Matplotlib v3.11.2, https://matplotlib.org/</dc:title>
     </cc:Agent>
    </dc:creator>
   </cc:Work>
  </rdf:RDF>
 </metadata>
 <defs>
  <style type="text/css">*{stroke-linejoin: round; stroke-linecap: butt}</style>
 </defs>
 <g id="figure_1">
  <g id="patch_1">
   <path d="M -0 451.245255 
L 654.168162 451.245255 
L 654.168162 0 
L -0 0 
z
" style="fill: #ffffff"/>
  </g>
  <g id="axes_1">
   <g id="line2d_1">
    <path d="M 501.566307 173.52 
L 385.244823 173.52 
" clip-path="url(#p7f1f5105db)" style="fill: none; stroke: #000000; stroke-linecap: square"/>
   </g>
   <g id="line2d_2">
    <path d="M 385.244823 173.52 
L 268.923339 173.52 
" clip-path="url(#p7f1f5105db)" style="fill: none; stroke: #000000; stroke-linecap: square"/>
   </g>
   <g id="line2d_3">
    <path d="M 268.923339 173.52 
L 268.923339 57.198516 
" clip-path="url(#p7f1f5105db)" style="fill: none; stroke: #000000; stroke-linecap: square"/>
   </g>
   <g id="line2d_4">
    <path d="M 268.923339 173.52 
L 152.601855 173.52 
" clip-path="url(#p7f1f5105db)" style="fill: none; stroke: #000000; stroke-linecap: square"/>
   </g>
   <g id="line2d_5">
    <path d="M 152.601855 173.52 
L 152.601855 289.841484 
" clip-path="url(#p7f1f5105db)" style="fill: none; stroke: #000000; stroke-linecap: square"/>
   </g>
   <g id="line2d_6">
    <path d="M 617.887791 173.52 
L 501.566307 173.52 
" clip-path="url(#p7f1f5105db)" style="fill: none; stroke: #000000; stroke-linecap: square"/>
   </g>
   <g id="line2d_7">
    <path d="M 152.601855 173.52 
L 36.280371 173.52 
" clip-path="url(#p7f1f5105db)" style="fill: none; stroke: #000000; stroke-linecap: square"/>
   </g>
   <g id="patch_2">
    <path d="M 470.159506 204.926801 
L 532.973108 204.926801 
L 532.973108 142.113199 
L 470.159506 142.113199 
z
" clip-path="url(#p7f1f5105db)" style="fill: #0072bc; stroke: #000000; stroke-linejoin: miter"/>
   </g>
   <g id="patch_3">
    <path d="M 353.838022 204.926801 
L 416.651624 204.926801 
L 416.651624 142.113199 
L 353.838022 142.113199 
z
" clip-path="url(#p7f1f5105db)" style="fill: #0072bc; stroke: #000000; stroke-linejoin: miter"/>
   </g>
   <g id="patch_4">
    <path d="M 303.819784 173.52 
L 303.533285 169.057542 
L 302.678491 164.668357 
L 301.269439 160.424516 
L 299.329264 156.395702 
L 296.889826 152.648069 
L 293.991178 149.243152 
L 290.680917 146.236861 
L 287.013397 143.678557 
L 283.048839 141.61025 
L 278.85234 140.0659 
L 274.492808 139.070865 
L 270.041825 138.641484 
L 265.572477 138.784807 
L 261.158149 139.498482 
L 256.871326 140.770788 
L 252.782397 142.580836 
L 248.958501 144.898904 
L 245.462428 147.686929 
L 242.351582 150.899133 
L 239.677043 154.482771 
L 237.482728 158.379 
L 235.804667 162.523843 
L 234.670414 166.849243 
L 234.098592 171.284177 
L 234.098592 175.755823 
L 234.670414 180.190757 
L 235.804667 184.516157 
L 237.482728 188.661 
L 239.677043 192.557229 
L 242.351582 196.140867 
L 245.462428 199.353071 
L 248.958501 202.141096 
L 252.782397 204.459164 
L 256.871326 206.269212 
L 261.158149 207.541518 
L 265.572477 208.255193 
L 270.041825 208.398516 
L 274.492808 207.969135 
L 278.85234 206.9741 
L 283.048839 205.42975 
L 287.013397 203.361443 
L 290.680917 200.803139 
L 293.991178 197.796848 
L 296.889826 194.391931 
L 299.329264 190.644298 
L 301.269439 186.615484 
L 302.678491 182.371643 
L 303.533285 177.982458 
L 303.819784 173.52 
z
" clip-path="url(#p7f1f5105db)" style="fill: #00a651; stroke: #000000; stroke-linejoin: miter"/>
   </g>
   <g id="patch_5">
    <path d="M 303.819784 57.198516 
L 303.533285 52.736058 
L 302.678491 48.346873 
L 301.269439 44.103032 
L 299.329264 40.074218 
L 296.889826 36.326585 
L 293.991178 32.921668 
L 290.680917 29.915376 
L 287.013397 27.357073 
L 283.048839 25.288766 
L 278.85234 23.744416 
L 274.492808 22.749381 
L 270.041825 22.32 
L 265.572477 22.463323 
L 261.158149 23.176998 
L 256.871326 24.449304 
L 252.782397 26.259352 
L 248.958501 28.57742 
L 245.462428 31.365445 
L 242.351582 34.577649 
L 239.677043 38.161287 
L 237.482728 42.057516 
L 235.804667 46.202359 
L 234.670414 50.527759 
L 234.098592 54.962693 
L 234.098592 59.434339 
L 234.670414 63.869273 
L 235.804667 68.194673 
L 237.482728 72.339516 
L 239.677043 76.235745 
L 242.351582 79.819383 
L 245.462428 83.031587 
L 248.958501 85.819612 
L 252.782397 88.13768 
L 256.871326 89.947728 
L 261.158149 91.220034 
L 265.572477 91.933709 
L 270.041825 92.077032 
L 274.492808 91.647651 
L 278.85234 90.652616 
L 283.048839 89.108266 
L 287.013397 87.039959 
L 290.680917 84.481655 
L 293.991178 81.475364 
L 296.889826 78.070447 
L 299.329264 74.322814 
L 301.269439 70.294 
L 302.678491 66.050159 
L 303.533285 61.660974 
L 303.819784 57.198516 
z
" clip-path="url(#p7f1f5105db)" style="fill: #ffd400; stroke: #000000; stroke-linejoin: miter"/>
   </g>
   <g id="patch_6">
    <path d="M 187.4983 173.52 
L 187.211801 169.057542 
L 186.357007 164.668357 
L 184.947955 160.424516 
L 183.00778 156.395702 
L 180.568342 152.648069 
L 177.669694 149.243152 
L 174.359433 146.236861 
L 170.691913 143.678557 
L 166.727355 141.61025 
L 162.530856 140.0659 
L 158.171324 139.070865 
L 153.720341 138.641484 
L 149.250993 138.784807 
L 144.836665 139.498482 
L 140.549842 140.770788 
L 136.460913 142.580836 
L 132.637017 144.898904 
L 129.140944 147.686929 
L 126.030098 150.899133 
L 123.355559 154.482771 
L 121.161244 158.379 
L 119.483183 162.523843 
L 118.34893 166.849243 
L 117.777108 171.284177 
L 117.777108 175.755823 
L 118.34893 180.190757 
L 119.483183 184.516157 
L 121.161244 188.661 
L 123.355559 192.557229 
L 126.030098 196.140867 
L 129.140944 199.353071 
L 132.637017 202.141096 
L 136.460913 204.459164 
L 140.549842 206.269212 
L 144.836665 207.541518 
L 149.250993 208.255193 
L 153.720341 208.398516 
L 158.171324 207.969135 
L 162.530856 206.9741 
L 166.727355 205.42975 
L 170.691913 203.361443 
L 174.359433 200.803139 
L 177.669694 197.796848 
L 180.568342 194.391931 
L 183.00778 190.644298 
L 184.947955 186.615484 
L 186.357007 182.371643 
L 187.211801 177.982458 
L 187.4983 173.52 
z
" clip-path="url(#p7f1f5105db)" style="fill: #00a651; stroke: #000000; stroke-linejoin: miter"/>
   </g>
   <g id="patch_7">
    <path d="M 187.4983 289.841484 
L 187.211801 285.379026 
L 186.357007 280.989841 
L 184.947955 276.746 
L 183.00778 272.717186 
L 180.568342 268.969553 
L 177.669694 265.564636 
L 174.359433 262.558345 
L 170.691913 260.000041 
L 166.727355 257.931734 
L 162.530856 256.387384 
L 158.171324 255.392349 
L 153.720341 254.962968 
L 149.250993 255.106291 
L 144.836665 255.819966 
L 140.549842 257.092272 
L 136.460913 258.90232 
L 132.637017 261.220388 
L 129.140944 264.008413 
L 126.030098 267.220617 
L 123.355559 270.804255 
L 121.161244 274.700484 
L 119.483183 278.845327 
L 118.34893 283.170727 
L 117.777108 287.605661 
L 117.777108 292.077307 
L 118.34893 296.512241 
L 119.483183 300.837641 
L 121.161244 304.982484 
L 123.355559 308.878713 
L 126.030098 312.462351 
L 129.140944 315.674555 
L 132.637017 318.46258 
L 136.460913 320.780648 
L 140.549842 322.590696 
L 144.836665 323.863002 
L 149.250993 324.576677 
L 153.720341 324.72 
L 158.171324 324.290619 
L 162.530856 323.295584 
L 166.727355 321.751234 
L 170.691913 319.682927 
L 174.359433 317.124624 
L 177.669694 314.118332 
L 180.568342 310.713415 
L 183.00778 306.965782 
L 184.947955 302.936968 
L 186.357007 298.693127 
L 187.211801 294.303942 
z
" clip-path="url(#p7f1f5105db)" style="fill: #ffd400; stroke: #000000; stroke-linejoin: miter"/>
   </g>
   <g id="text_1">
    <!-- 4 -->
    <g transform="translate(451.538338 157.184377) scale(0.11 -0.11)">
     <defs>
      <path id="DejaVuSans-17" d="M 2419 4116 
L 825 1625 
L 2419 1625 
L 2419 4116 
z
M 2253 4666 
L 3047 4666 
L 3047 1625 
L 3713 1625 
L 3713 1100 
L 3047 1100 
L 3047 0 
L 2419 0 
L 2419 1100 
L 313 1100 
L 313 1709 
L 2253 4666 
z
" transform="scale(0.015625)"/>
     </defs>
     <use xlink:href="#DejaVuSans-17"/>
    </g>
   </g>
   <g id="text_2">
    <!-- β -->
    <g transform="translate(428.263729 157.219182) scale(0.11 -0.11)">
     <defs>
      <path id="DejaVuSans-346" d="M 1178 216 
L 1178 -1331 
L 600 -1331 
L 600 3478 
Q 600 4903 1931 4903 
Q 3288 4903 3288 3700 
Q 3288 2844 2750 2531 
Q 3625 2250 3625 1416 
Q 3625 -66 2119 -66 
Q 1456 -66 1178 216 
z
M 1178 966 
Q 1525 425 2141 425 
Q 3041 425 3041 1406 
Q 3041 2288 1591 2219 
L 1591 2750 
Q 2725 2750 2725 3750 
Q 2725 4434 1994 4434 
Q 1178 4434 1178 3459 
L 1178 966 
z
" transform="scale(0.015625)"/>
     </defs>
     <use xlink:href="#DejaVuSans-346"/>
    </g>
   </g>
   <g id="text_3">
    <!-- 4 -->
    <g transform="translate(335.216854 157.184377) scale(0.11 -0.11)">
     <use xlink:href="#DejaVuSans-17"/>
    </g>
   </g>
   <g id="text_4">
    <!-- α -->
    <g transform="translate(311.82623 157.184377) scale(0.11 -0.11)">
     <defs>
      <path id="DejaVuSans-345" d="M 2644 1628 
L 2506 2350 
Q 2366 3091 1809 3091 
Q 1391 3091 1200 2747 
Q 959 2316 959 1747 
Q 959 1059 1194 731 
Q 1431 397 1809 397 
Q 2228 397 2453 1063 
L 2644 1628 
z
M 2966 2584 
L 3275 3500 
L 3788 3500 
L 3147 1603 
L 3272 919 
Q 3300 766 3409 638 
Q 3538 488 3638 488 
L 3913 488 
L 3913 0 
L 3569 0 
Q 3275 0 3013 263 
Q 2884 394 2831 669 
Q 2688 322 2394 50 
Q 2256 -78 1809 -78 
Q 1075 -78 719 397 
Q 353 888 353 1747 
Q 353 2666 750 3097 
Q 1191 3578 1809 3578 
Q 2781 3578 2966 2584 
z
" transform="scale(0.015625)"/>
     </defs>
     <use xlink:href="#DejaVuSans-345"/>
    </g>
   </g>
   <g id="text_5">
    <!-- 3 -->
    <g transform="translate(284.617009 129.848828) scale(0.11 -0.11)">
     <defs>
      <path id="DejaVuSans-16" d="M 2597 2516 
Q 3050 2419 3304 2112 
Q 3559 1806 3559 1356 
Q 3559 666 3084 287 
Q 2609 -91 1734 -91 
Q 1441 -91 1130 -33 
Q 819 25 488 141 
L 488 750 
Q 750 597 1062 519 
Q 1375 441 1716 441 
Q 2309 441 2620 675 
Q 2931 909 2931 1356 
Q 2931 1769 2642 2001 
Q 2353 2234 1838 2234 
L 1294 2234 
L 1294 2753 
L 1863 2753 
Q 2328 2753 2575 2939 
Q 2822 3125 2822 3475 
Q 2822 3834 2567 4026 
Q 2313 4219 1838 4219 
Q 1578 4219 1281 4162 
Q 984 4106 628 3988 
L 628 4550 
Q 988 4650 1302 4700 
Q 1616 4750 1894 4750 
Q 2613 4750 3031 4423 
Q 3450 4097 3450 3541 
Q 3450 3153 3228 2886 
Q 3006 2619 2597 2516 
z
" transform="scale(0.015625)"/>
     </defs>
     <use xlink:href="#DejaVuSans-16"/>
    </g>
   </g>
   <g id="text_6">
    <!-- β -->
    <g transform="translate(284.606696 106.619336) scale(0.11 -0.11)">
     <use xlink:href="#DejaVuSans-346"/>
    </g>
   </g>
   <g id="text_7">
    <!-- 4 -->
    <g transform="translate(218.89537 157.184377) scale(0.11 -0.11)">
     <use xlink:href="#DejaVuSans-17"/>
    </g>
   </g>
   <g id="text_8">
    <!-- α -->
    <g transform="translate(195.504746 157.184377) scale(0.11 -0.11)">
     <use xlink:href="#DejaVuSans-345"/>
    </g>
   </g>
   <g id="text_9">
    <!-- 6 -->
    <g transform="translate(168.295525 222.906015) scale(0.11 -0.11)">
     <defs>
      <path id="DejaVuSans-19" d="M 2113 2584 
Q 1688 2584 1439 2293 
Q 1191 2003 1191 1497 
Q 1191 994 1439 701 
Q 1688 409 2113 409 
Q 2538 409 2786 701 
Q 3034 994 3034 1497 
Q 3034 2003 2786 2293 
Q 2538 2584 2113 2584 
z
M 3366 4563 
L 3366 3988 
Q 3128 4100 2886 4159 
Q 2644 4219 2406 4219 
Q 1781 4219 1451 3797 
Q 1122 3375 1075 2522 
Q 1259 2794 1537 2939 
Q 1816 3084 2150 3084 
Q 2853 3084 3261 2657 
Q 3669 2231 3669 1497 
Q 3669 778 3244 343 
Q 2819 -91 2113 -91 
Q 1303 -91 875 529 
Q 447 1150 447 2328 
Q 447 3434 972 4092 
Q 1497 4750 2381 4750 
Q 2619 4750 2861 4703 
Q 3103 4656 3366 4563 
z
" transform="scale(0.015625)"/>
     </defs>
     <use xlink:href="#DejaVuSans-19"/>
    </g>
   </g>
   <g id="text_10">
    <!-- β -->
    <g transform="translate(168.285212 246.205117) scale(0.11 -0.11)">
     <use xlink:href="#DejaVuSans-346"/>
    </g>
   </g>
   <g id="text_11">
    <!-- β -->
    <g transform="translate(567.84951 157.219182) scale(0.11 -0.11)">
     <use xlink:href="#DejaVuSans-346"/>
    </g>
   </g>
   <g id="text_12">
    <!-- 4 -->
    <g transform="translate(102.573886 157.184377) scale(0.11 -0.11)">
     <use xlink:href="#DejaVuSans-17"/>
    </g>
   </g>
  </g>
  <g id="axes_2">
   <g id="patch_8">
    <path d="M 193.658896 409.166739 
L 193.372397 404.70428 
L 192.517603 400.315095 
L 191.108551 396.071254 
L 189.168376 392.04244 
L 186.728938 388.294807 
L 183.83029 384.889891 
L 180.520029 381.883599 
L 176.852509 379.325296 
L 172.887951 377.256989 
L 168.691452 375.712638 
L 164.33192 374.717604 
L 159.880937 374.288223 
L 155.411589 374.431546 
L 150.997261 375.14522 
L 146.710438 376.417527 
L 142.621509 378.227574 
L 138.797613 380.545642 
L 135.30154 383.333668 
L 132.190694 386.545872 
L 129.516155 390.12951 
L 127.32184 394.025738 
L 125.643779 398.170582 
L 124.509526 402.495982 
L 123.937704 406.930916 
L 123.937704 411.402562 
L 124.509526 415.837495 
L 125.643779 420.162895 
L 127.32184 424.307739 
L 129.516155 428.203967 
L 132.190694 431.787605 
L 135.30154 434.999809 
L 138.797613 437.787835 
L 142.621509 440.105903 
L 146.710438 441.91595 
L 150.997261 443.188257 
L 155.411589 443.901931 
L 159.880937 444.045255 
L 164.33192 443.615874 
L 168.691452 442.620839 
L 172.887951 441.076489 
L 176.852509 439.008181 
L 180.520029 436.449878 
L 183.83029 433.443587 
L 186.728938 430.03867 
L 189.168376 426.291037 
L 191.108551 422.262223 
L 192.517603 418.018382 
L 193.372397 413.629197 
L 193.658896 409.166739 
z
" clip-path="url(#p28f74221a3)" style="fill: #ffd400; stroke: #000000; stroke-linejoin: miter"/>
   </g>
   <g id="patch_9">
    <path d="M 266.941431 440.573539 
L 329.755033 440.573539 
L 329.755033 377.759938 
L 266.941431 377.759938 
z
" clip-path="url(#p28f74221a3)" style="fill: #0072bc; stroke: #000000; stroke-linejoin: miter"/>
   </g>
   <g id="patch_10">
    <path d="M 472.830458 409.166739 
L 472.543959 404.70428 
L 471.689165 400.315095 
L 470.280112 396.071254 
L 468.339938 392.04244 
L 465.900499 388.294807 
L 463.001851 384.889891 
L 459.69159 381.883599 
L 456.02407 379.325296 
L 452.059512 377.256989 
L 447.863014 375.712638 
L 443.503482 374.717604 
L 439.052499 374.288223 
L 434.58315 374.431546 
L 430.168823 375.14522 
L 425.882 376.417527 
L 421.793071 378.227574 
L 417.969175 380.545642 
L 414.473101 383.333668 
L 411.362255 386.545872 
L 408.687717 390.12951 
L 406.493402 394.025738 
L 404.815341 398.170582 
L 403.681087 402.495982 
L 403.109266 406.930916 
L 403.109266 411.402562 
L 403.681087 415.837495 
L 404.815341 420.162895 
L 406.493402 424.307739 
L 408.687717 428.203967 
L 411.362255 431.787605 
L 414.473101 434.999809 
L 417.969175 437.787835 
L 421.793071 440.105903 
L 425.882 441.91595 
L 430.168823 443.188257 
L 434.58315 443.901931 
L 439.052499 444.045255 
L 443.503482 443.615874 
L 447.863014 442.620839 
L 452.059512 441.076489 
L 456.02407 439.008181 
L 459.69159 436.449878 
L 463.001851 433.443587 
L 465.900499 430.03867 
L 468.339938 426.291037 
L 470.280112 422.262223 
L 471.689165 418.018382 
L 472.543959 413.629197 
L 472.830458 409.166739 
z
" clip-path="url(#p28f74221a3)" style="fill: #00a651; stroke: #000000; stroke-linejoin: miter"/>
   </g>
   <g id="text_13">
    <!-- Gal -->
    <g transform="translate(193.658896 412.284395) scale(0.12 -0.12)">
     <defs>
      <path id="DejaVuSans-2a" d="M 3809 666 
L 3809 1919 
L 2778 1919 
L 2778 2438 
L 4434 2438 
L 4434 434 
Q 4069 175 3628 42 
Q 3188 -91 2688 -91 
Q 1594 -91 976 548 
Q 359 1188 359 2328 
Q 359 3472 976 4111 
Q 1594 4750 2688 4750 
Q 3144 4750 3555 4637 
Q 3966 4525 4313 4306 
L 4313 3634 
Q 3963 3931 3569 4081 
Q 3175 4231 2741 4231 
Q 1884 4231 1454 3753 
Q 1025 3275 1025 2328 
Q 1025 1384 1454 906 
Q 1884 428 2741 428 
Q 3075 428 3337 486 
Q 3600 544 3809 666 
z
" transform="scale(0.015625)"/>
      <path id="DejaVuSans-44" d="M 2194 1759 
Q 1497 1759 1228 1600 
Q 959 1441 959 1056 
Q 959 750 1161 570 
Q 1363 391 1709 391 
Q 2188 391 2477 730 
Q 2766 1069 2766 1631 
L 2766 1759 
L 2194 1759 
z
M 3341 1997 
L 3341 0 
L 2766 0 
L 2766 531 
Q 2569 213 2275 61 
Q 1981 -91 1556 -91 
Q 1019 -91 701 211 
Q 384 513 384 1019 
Q 384 1609 779 1909 
Q 1175 2209 1959 2209 
L 2766 2209 
L 2766 2266 
Q 2766 2663 2505 2880 
Q 2244 3097 1772 3097 
Q 1472 3097 1187 3025 
Q 903 2953 641 2809 
L 641 3341 
Q 956 3463 1253 3523 
Q 1550 3584 1831 3584 
Q 2591 3584 2966 3190 
Q 3341 2797 3341 1997 
z
" transform="scale(0.015625)"/>
      <path id="DejaVuSans-4f" d="M 603 4863 
L 1178 4863 
L 1178 0 
L 603 0 
L 603 4863 
z
" transform="scale(0.015625)"/>
     </defs>
     <use xlink:href="#DejaVuSans-2a"/>
     <use xlink:href="#DejaVuSans-44" transform="translate(77.484375 0)"/>
     <use xlink:href="#DejaVuSans-4f" transform="translate(138.765625 0)"/>
    </g>
   </g>
   <g id="text_14">
    <!-- GlcNAc -->
    <g transform="translate(333.244677 412.284395) scale(0.12 -0.12)">
     <defs>
      <path id="DejaVuSans-46" d="M 3122 3366 
L 3122 2828 
Q 2878 2963 2633 3030 
Q 2388 3097 2138 3097 
Q 1578 3097 1268 2742 
Q 959 2388 959 1747 
Q 959 1106 1268 751 
Q 1578 397 2138 397 
Q 2388 397 2633 464 
Q 2878 531 3122 666 
L 3122 134 
Q 2881 22 2623 -34 
Q 2366 -91 2075 -91 
Q 1284 -91 818 406 
Q 353 903 353 1747 
Q 353 2603 823 3093 
Q 1294 3584 2113 3584 
Q 2378 3584 2631 3529 
Q 2884 3475 3122 3366 
z
" transform="scale(0.015625)"/>
      <path id="DejaVuSans-31" d="M 628 4666 
L 1478 4666 
L 3547 763 
L 3547 4666 
L 4159 4666 
L 4159 0 
L 3309 0 
L 1241 3903 
L 1241 0 
L 628 0 
L 628 4666 
z
" transform="scale(0.015625)"/>
      <path id="DejaVuSans-24" d="M 2188 4044 
L 1331 1722 
L 3047 1722 
L 2188 4044 
z
M 1831 4666 
L 2547 4666 
L 4325 0 
L 3669 0 
L 3244 1197 
L 1141 1197 
L 716 0 
L 50 0 
L 1831 4666 
z
" transform="scale(0.015625)"/>
     </defs>
     <use xlink:href="#DejaVuSans-2a"/>
     <use xlink:href="#DejaVuSans-4f" transform="translate(77.484375 0)"/>
     <use xlink:href="#DejaVuSans-46" transform="translate(105.265625 0)"/>
     <use xlink:href="#DejaVuSans-31" transform="translate(160.25 0)"/>
     <use xlink:href="#DejaVuSans-24" transform="translate(235.0625 0)"/>
     <use xlink:href="#DejaVuSans-46" transform="translate(301.71875 0)"/>
    </g>
   </g>
   <g id="text_15">
    <!-- Man -->
    <g transform="translate(472.830458 412.283926) scale(0.12 -0.12)">
     <defs>
      <path id="DejaVuSans-30" d="M 628 4666 
L 1569 4666 
L 2759 1491 
L 3956 4666 
L 4897 4666 
L 4897 0 
L 4281 0 
L 4281 4097 
L 3078 897 
L 2444 897 
L 1241 4097 
L 1241 0 
L 628 0 
L 628 4666 
z
" transform="scale(0.015625)"/>
      <path id="DejaVuSans-51" d="M 3513 2113 
L 3513 0 
L 2938 0 
L 2938 2094 
Q 2938 2591 2744 2837 
Q 2550 3084 2163 3084 
Q 1697 3084 1428 2787 
Q 1159 2491 1159 1978 
L 1159 0 
L 581 0 
L 581 3500 
L 1159 3500 
L 1159 2956 
Q 1366 3272 1645 3428 
Q 1925 3584 2291 3584 
Q 2894 3584 3203 3211 
Q 3513 2838 3513 2113 
z
" transform="scale(0.015625)"/>
     </defs>
     <use xlink:href="#DejaVuSans-30"/>
     <use xlink:href="#DejaVuSans-44" transform="translate(86.28125 0)"/>
     <use xlink:href="#DejaVuSans-51" transform="translate(147.5625 0)"/>
    </g>
   </g>
  </g>
 </g>
 <defs>
  <clipPath id="p7f1f5105db">
   <rect x="7.2" y="7.2" width="639.768162" height="332.64"/>
  </clipPath>
  <clipPath id="p28f74221a3">
   <rect x="123.937704" y="374.288223" width="348.892754" height="69.757032"/>
  </clipPath>
 </defs>
</svg>
