<?xml version="1.0" encoding="utf-8" standalone="no"?>
<!DOCTYPE svg PUBLIC "-//W3C//DTD SVG 1.1//EN"
  "http://www.w3.org/Graphics/SVG/1.1/DTD/svg11.dtd">
<svg xmlns:xlink="http://www.w3.org/1999/xlink" width="684pt" height="235.322399pt" viewBox="0 0 684 235.322399" xmlns="http://www.w3.org/2000/svg" version="1.1">
 <metadata>
  <rdf:RDF xmlns:dc="http://purl.org/dc/elements/1.1/" xmlns:cc="http://creativecommons.org/ns#" xmlns:rdf="http://www.w3.org/1999/02/22-rdf-syntax-ns#">
   <cc:Work>
    <dc:type rdf:resource="http://purl.org/dc/dcmitype/StillImage"/>
    <dc:date>2026-07-21T17:20:32.386519</dc:date>
    <dc:format>image/svg+xml</dc:format>
    <dc:creator>
     <cc:Agent>
      <dc:title>Matplotlib v3.11.1, https://matplotlib.org/</dc:title>
     </cc:Agent>
    </dc:creator>
   </cc:Work>
  </rdf:RDF>
 </metadata>
 <defs>
  <style type="text/css">*{stroke-linejoin: round; stroke-linecap: butt}</style>
 </defs>
 <g id="figure_1">
  <g id="patch_1">
   <path d="M 0 235.322399 
L 684 235.322399 
L 684 0 
L 0 0 
z
" style="fill: #ffffff"/>
  </g>
  <g id="axes_1">
   <g id="line2d_1">
    <path d="M 559.402597 35.882399 
L 472.441558 35.882399 
" clip-path="url(#p7dbaa4e66f)" style="fill: none; stroke: #000000; stroke-linecap: square"/>
   </g>
   <g id="line2d_2">
    <path d="M 472.441558 35.882399 
L 385.480519 35.882399 
" clip-path="url(#p7dbaa4e66f)" style="fill: none; stroke: #000000; stroke-linecap: square"/>
   </g>
   <g id="line2d_3">
    <path d="M 385.480519 35.882399 
L 298.519481 35.882399 
" clip-path="url(#p7dbaa4e66f)" style="fill: none; stroke: #000000; stroke-linecap: square"/>
   </g>
   <g id="line2d_4">
    <path d="M 298.519481 35.882399 
L 211.558442 35.882399 
" clip-path="url(#p7dbaa4e66f)" style="fill: none; stroke: #000000; stroke-linecap: square"/>
   </g>
   <g id="line2d_5">
    <path d="M 211.558442 35.882399 
L 124.597403 35.882399 
" clip-path="url(#p7dbaa4e66f)" style="fill: none; stroke: #000000; stroke-linecap: square"/>
   </g>
   <g id="line2d_6">
    <path d="M 646.363636 35.882399 
L 559.402597 35.882399 
" clip-path="url(#p7dbaa4e66f)" style="fill: none; stroke: #000000; stroke-linecap: square"/>
   </g>
   <g id="line2d_7">
    <path d="M 124.597403 35.882399 
L 37.636364 35.882399 
" clip-path="url(#p7dbaa4e66f)" style="fill: none; stroke: #000000; stroke-linecap: square"/>
   </g>
   <g id="patch_2">
    <path d="M 585.490909 35.882399 
L 585.276724 32.546299 
L 584.637687 29.264979 
L 583.584291 26.092316 
L 582.133831 23.080406 
L 580.310126 20.278705 
L 578.143119 17.733216 
L 575.668394 15.485735 
L 572.926584 13.573168 
L 569.962711 12.026917 
L 566.825442 10.872373 
L 563.566289 10.128493 
L 560.238769 9.807491 
L 556.897519 9.914638 
L 553.597402 10.448175 
L 550.392606 11.399342 
L 547.335754 12.75252 
L 544.47704 14.485489 
L 541.863402 16.569796 
L 539.537758 18.971214 
L 537.538294 21.650314 
L 535.897841 24.563105 
L 534.643335 27.661757 
L 533.795376 30.895393 
L 533.367887 34.210915 
L 533.367887 37.553883 
L 533.795376 40.869405 
L 534.643335 44.10304 
L 535.897841 47.201693 
L 537.538294 50.114483 
L 539.537758 52.793583 
L 541.863402 55.195002 
L 544.47704 57.279308 
L 547.335754 59.012278 
L 550.392606 60.365455 
L 553.597402 61.316622 
L 556.897519 61.850159 
L 560.238769 61.957307 
L 563.566289 61.636305 
L 566.825442 60.892424 
L 569.962711 59.73788 
L 572.926584 58.19163 
L 575.668394 56.279062 
L 578.143119 54.031582 
L 580.310126 51.486093 
L 582.133831 48.684391 
L 583.584291 45.672481 
L 584.637687 42.499819 
L 585.276724 39.218498 
L 585.490909 35.882399 
z
" clip-path="url(#p7dbaa4e66f)" style="fill: #0072bc; stroke: #000000; stroke-linejoin: miter"/>
   </g>
   <g id="patch_3">
    <path d="M 498.52987 35.882399 
L 498.315685 32.546299 
L 497.676648 29.264979 
L 496.623252 26.092316 
L 495.172792 23.080406 
L 493.349087 20.278705 
L 491.18208 17.733216 
L 488.707355 15.485735 
L 485.965545 13.573168 
L 483.001672 12.026917 
L 479.864403 10.872373 
L 476.60525 10.128493 
L 473.27773 9.807491 
L 469.93648 9.914638 
L 466.636363 10.448175 
L 463.431567 11.399342 
L 460.374715 12.75252 
L 457.516001 14.485489 
L 454.902363 16.569796 
L 452.576719 18.971214 
L 450.577255 21.650314 
L 448.936802 24.563105 
L 447.682296 27.661757 
L 446.834337 30.895393 
L 446.406848 34.210915 
L 446.406848 37.553883 
L 446.834337 40.869405 
L 447.682296 44.10304 
L 448.936802 47.201693 
L 450.577255 50.114483 
L 452.576719 52.793583 
L 454.902363 55.195002 
L 457.516001 57.279308 
L 460.374715 59.012278 
L 463.431567 60.365455 
L 466.636363 61.316622 
L 469.93648 61.850159 
L 473.27773 61.957307 
L 476.60525 61.636305 
L 479.864403 60.892424 
L 483.001672 59.73788 
L 485.965545 58.19163 
L 488.707355 56.279062 
L 491.18208 54.031582 
L 493.349087 51.486093 
L 495.172792 48.684391 
L 496.623252 45.672481 
L 497.676648 42.499819 
L 498.315685 39.218498 
L 498.52987 35.882399 
z
" clip-path="url(#p7dbaa4e66f)" style="fill: #ffd400; stroke: #000000; stroke-linejoin: miter"/>
   </g>
   <g id="patch_4">
    <path d="M 411.568831 35.882399 
L 411.354646 32.546299 
L 410.715609 29.264979 
L 409.662213 26.092316 
L 408.211753 23.080406 
L 406.388048 20.278705 
L 404.221041 17.733216 
L 401.746316 15.485735 
L 399.004506 13.573168 
L 396.040634 12.026917 
L 392.903364 10.872373 
L 389.644211 10.128493 
L 386.316691 9.807491 
L 382.975441 9.914638 
L 379.675324 10.448175 
L 376.470528 11.399342 
L 373.413676 12.75252 
L 370.554962 14.485489 
L 367.941324 16.569796 
L 365.61568 18.971214 
L 363.616216 21.650314 
L 361.975763 24.563105 
L 360.721257 27.661757 
L 359.873298 30.895393 
L 359.445809 34.210915 
L 359.445809 37.553883 
L 359.873298 40.869405 
L 360.721257 44.10304 
L 361.975763 47.201693 
L 363.616216 50.114483 
L 365.61568 52.793583 
L 367.941324 55.195002 
L 370.554962 57.279308 
L 373.413676 59.012278 
L 376.470528 60.365455 
L 379.675324 61.316622 
L 382.975441 61.850159 
L 386.316691 61.957307 
L 389.644211 61.636305 
L 392.903364 60.892424 
L 396.040634 59.73788 
L 399.004506 58.19163 
L 401.746316 56.279062 
L 404.221041 54.031582 
L 406.388048 51.486093 
L 408.211753 48.684391 
L 409.662213 45.672481 
L 410.715609 42.499819 
L 411.354646 39.218498 
L 411.568831 35.882399 
z
" clip-path="url(#p7dbaa4e66f)" style="fill: #ffd400; stroke: #000000; stroke-linejoin: miter"/>
   </g>
   <g id="patch_5">
    <path d="M 324.607792 35.882399 
L 324.393608 32.546299 
L 323.75457 29.264979 
L 322.701174 26.092316 
L 321.250714 23.080406 
L 319.427009 20.278705 
L 317.260002 17.733216 
L 314.785277 15.485735 
L 312.043467 13.573168 
L 309.079595 12.026917 
L 305.942325 10.872373 
L 302.683172 10.128493 
L 299.355652 9.807491 
L 296.014402 9.914638 
L 292.714285 10.448175 
L 289.509489 11.399342 
L 286.452637 12.75252 
L 283.593923 14.485489 
L 280.980285 16.569796 
L 278.654641 18.971214 
L 276.655177 21.650314 
L 275.014724 24.563105 
L 273.760218 27.661757 
L 272.912259 30.895393 
L 272.48477 34.210915 
L 272.48477 37.553883 
L 272.912259 40.869405 
L 273.760218 44.10304 
L 275.014724 47.201693 
L 276.655177 50.114483 
L 278.654641 52.793583 
L 280.980285 55.195002 
L 283.593923 57.279308 
L 286.452637 59.012278 
L 289.509489 60.365455 
L 292.714285 61.316622 
L 296.014402 61.850159 
L 299.355652 61.957307 
L 302.683172 61.636305 
L 305.942325 60.892424 
L 309.079595 59.73788 
L 312.043467 58.19163 
L 314.785277 56.279062 
L 317.260002 54.031582 
L 319.427009 51.486093 
L 321.250714 48.684391 
L 322.701174 45.672481 
L 323.75457 42.499819 
L 324.393608 39.218498 
L 324.607792 35.882399 
z
" clip-path="url(#p7dbaa4e66f)" style="fill: #ffd400; stroke: #000000; stroke-linejoin: miter"/>
   </g>
   <g id="patch_6">
    <path d="M 237.646753 35.882399 
L 237.432569 32.546299 
L 236.793531 29.264979 
L 235.740135 26.092316 
L 234.289675 23.080406 
L 232.46597 20.278705 
L 230.298963 17.733216 
L 227.824238 15.485735 
L 225.082428 13.573168 
L 222.118556 12.026917 
L 218.981286 10.872373 
L 215.722133 10.128493 
L 212.394613 9.807491 
L 209.053363 9.914638 
L 205.753246 10.448175 
L 202.54845 11.399342 
L 199.491598 12.75252 
L 196.632884 14.485489 
L 194.019246 16.569796 
L 191.693602 18.971214 
L 189.694138 21.650314 
L 188.053685 24.563105 
L 186.799179 27.661757 
L 185.95122 30.895393 
L 185.523731 34.210915 
L 185.523731 37.553883 
L 185.95122 40.869405 
L 186.799179 44.10304 
L 188.053685 47.201693 
L 189.694138 50.114483 
L 191.693602 52.793583 
L 194.019246 55.195002 
L 196.632884 57.279308 
L 199.491598 59.012278 
L 202.54845 60.365455 
L 205.753246 61.316622 
L 209.053363 61.850159 
L 212.394613 61.957307 
L 215.722133 61.636305 
L 218.981286 60.892424 
L 222.118556 59.73788 
L 225.082428 58.19163 
L 227.824238 56.279062 
L 230.298963 54.031582 
L 232.46597 51.486093 
L 234.289675 48.684391 
L 235.740135 45.672481 
L 236.793531 42.499819 
L 237.432569 39.218498 
L 237.646753 35.882399 
z
" clip-path="url(#p7dbaa4e66f)" style="fill: #ffd400; stroke: #000000; stroke-linejoin: miter"/>
   </g>
   <g id="patch_7">
    <path d="M 150.685714 35.882399 
L 150.47153 32.546299 
L 149.832492 29.264979 
L 148.779096 26.092316 
L 147.328637 23.080406 
L 145.504931 20.278705 
L 143.337924 17.733216 
L 140.863199 15.485735 
L 138.121389 13.573168 
L 135.157517 12.026917 
L 132.020247 10.872373 
L 128.761094 10.128493 
L 125.433574 9.807491 
L 122.092324 9.914638 
L 118.792207 10.448175 
L 115.587411 11.399342 
L 112.53056 12.75252 
L 109.671845 14.485489 
L 107.058207 16.569796 
L 104.732563 18.971214 
L 102.733099 21.650314 
L 101.092646 24.563105 
L 99.83814 27.661757 
L 98.990181 30.895393 
L 98.562692 34.210915 
L 98.562692 37.553883 
L 98.990181 40.869405 
L 99.83814 44.10304 
L 101.092646 47.201693 
L 102.733099 50.114483 
L 104.732563 52.793583 
L 107.058207 55.195002 
L 109.671845 57.279308 
L 112.53056 59.012278 
L 115.587411 60.365455 
L 118.792207 61.316622 
L 122.092324 61.850159 
L 125.433574 61.957307 
L 128.761094 61.636305 
L 132.020247 60.892424 
L 135.157517 59.73788 
L 138.121389 58.19163 
L 140.863199 56.279062 
L 143.337924 54.031582 
L 145.504931 51.486093 
L 147.328637 48.684391 
L 148.779096 45.672481 
L 149.832492 42.499819 
L 150.47153 39.218498 
L 150.685714 35.882399 
z
" clip-path="url(#p7dbaa4e66f)" style="fill: #ffd400; stroke: #000000; stroke-linejoin: miter"/>
   </g>
   <g id="text_1">
    <!-- 4 -->
    <g transform="translate(521.118807 30.043717) scale(0.11 -0.11)">
     <defs>
      <path id="DejaVuSans-17" d="M 2419 4116 
L 825 1625 
L 2419 1625 
L 2419 4116 
z
M 2253 4666 
L 3047 4666 
L 3047 1625 
L 3713 1625 
L 3713 1100 
L 3047 1100 
L 3047 0 
L 2419 0 
L 2419 1100 
L 313 1100 
L 313 1709 
L 2253 4666 
z
" transform="scale(0.015625)"/>
     </defs>
     <use xlink:href="#DejaVuSans-17"/>
    </g>
   </g>
   <g id="text_2">
    <!-- β -->
    <g transform="translate(503.716287 30.078521) scale(0.11 -0.11)">
     <defs>
      <path id="DejaVuSans-346" d="M 1178 216 
L 1178 -1331 
L 600 -1331 
L 600 3478 
Q 600 4903 1931 4903 
Q 3288 4903 3288 3700 
Q 3288 2844 2750 2531 
Q 3625 2250 3625 1416 
Q 3625 -66 2119 -66 
Q 1456 -66 1178 216 
z
M 1178 966 
Q 1525 425 2141 425 
Q 3041 425 3041 1406 
Q 3041 2288 1591 2219 
L 1591 2750 
Q 2725 2750 2725 3750 
Q 2725 4434 1994 4434 
Q 1178 4434 1178 3459 
L 1178 966 
z
" transform="scale(0.015625)"/>
     </defs>
     <use xlink:href="#DejaVuSans-346"/>
    </g>
   </g>
   <g id="text_3">
    <!-- 4 -->
    <g transform="translate(434.157768 30.043717) scale(0.11 -0.11)">
     <use xlink:href="#DejaVuSans-17"/>
    </g>
   </g>
   <g id="text_4">
    <!-- β -->
    <g transform="translate(416.755248 30.078521) scale(0.11 -0.11)">
     <use xlink:href="#DejaVuSans-346"/>
    </g>
   </g>
   <g id="text_5">
    <!-- 4 -->
    <g transform="translate(347.196729 30.043717) scale(0.11 -0.11)">
     <use xlink:href="#DejaVuSans-17"/>
    </g>
   </g>
   <g id="text_6">
    <!-- β -->
    <g transform="translate(329.794209 30.078521) scale(0.11 -0.11)">
     <use xlink:href="#DejaVuSans-346"/>
    </g>
   </g>
   <g id="text_7">
    <!-- 4 -->
    <g transform="translate(260.23569 30.043717) scale(0.11 -0.11)">
     <use xlink:href="#DejaVuSans-17"/>
    </g>
   </g>
   <g id="text_8">
    <!-- β -->
    <g transform="translate(242.83317 30.078521) scale(0.11 -0.11)">
     <use xlink:href="#DejaVuSans-346"/>
    </g>
   </g>
   <g id="text_9">
    <!-- 4 -->
    <g transform="translate(173.274651 30.043717) scale(0.11 -0.11)">
     <use xlink:href="#DejaVuSans-17"/>
    </g>
   </g>
   <g id="text_10">
    <!-- β -->
    <g transform="translate(155.872131 30.078521) scale(0.11 -0.11)">
     <use xlink:href="#DejaVuSans-346"/>
    </g>
   </g>
   <g id="text_11">
    <!-- α -->
    <g transform="translate(607.953518 30.043717) scale(0.11 -0.11)">
     <defs>
      <path id="DejaVuSans-345" d="M 2644 1628 
L 2506 2350 
Q 2366 3091 1809 3091 
Q 1391 3091 1200 2747 
Q 959 2316 959 1747 
Q 959 1059 1194 731 
Q 1431 397 1809 397 
Q 2228 397 2453 1063 
L 2644 1628 
z
M 2966 2584 
L 3275 3500 
L 3788 3500 
L 3147 1603 
L 3272 919 
Q 3300 766 3409 638 
Q 3538 488 3638 488 
L 3913 488 
L 3913 0 
L 3569 0 
Q 3275 0 3013 263 
Q 2884 394 2831 669 
Q 2688 322 2394 50 
Q 2256 -78 1809 -78 
Q 1075 -78 719 397 
Q 353 888 353 1747 
Q 353 2666 750 3097 
Q 1191 3578 1809 3578 
Q 2781 3578 2966 2584 
z
" transform="scale(0.015625)"/>
     </defs>
     <use xlink:href="#DejaVuSans-345"/>
    </g>
   </g>
   <g id="text_12">
    <!-- 4 -->
    <g transform="translate(86.313612 30.043717) scale(0.11 -0.11)">
     <use xlink:href="#DejaVuSans-17"/>
    </g>
   </g>
  </g>
  <g id="axes_2">
   <g id="patch_8">
    <path d="M 311.533359 206.522399 
L 311.372062 204.010065 
L 310.890819 201.538985 
L 310.097533 199.149731 
L 309.005228 196.881537 
L 307.631841 194.771646 
L 305.999922 192.854701 
L 304.136268 191.16218 
L 302.071479 189.721873 
L 299.839461 188.55743 
L 297.476861 187.687971 
L 295.022474 187.127774 
L 292.516602 186.886035 
L 290.000389 186.966725 
L 287.515154 187.368519 
L 285.101702 188.084819 
L 282.799663 189.103863 
L 280.646836 190.408919 
L 278.678571 191.978558 
L 276.927186 193.787007 
L 275.421439 195.80457 
L 274.186055 197.99812 
L 273.241318 200.331638 
L 272.602741 202.766809 
L 272.28081 205.263646 
L 272.28081 207.781152 
L 272.602741 210.277989 
L 273.241318 212.713159 
L 274.186055 215.046677 
L 275.421439 217.240227 
L 276.927186 219.25779 
L 278.678571 221.066239 
L 280.646836 222.635878 
L 282.799663 223.940934 
L 285.101702 224.959979 
L 287.515154 225.676279 
L 290.000389 226.078072 
L 292.516602 226.158762 
L 295.022474 225.917024 
L 297.476861 225.356826 
L 299.839461 224.487368 
L 302.071479 223.322925 
L 304.136268 221.882618 
L 305.999922 220.190097 
L 307.631841 218.273152 
L 309.005228 216.16326 
L 310.097533 213.895066 
L 310.890819 211.505813 
L 311.372062 209.034732 
L 311.533359 206.522399 
z
" clip-path="url(#ped76a933d6)" style="fill: #ffd400; stroke: #000000; stroke-linejoin: miter"/>
   </g>
   <g id="patch_9">
    <path d="M 390.11919 206.522399 
L 389.957893 204.010065 
L 389.47665 201.538985 
L 388.683363 199.149731 
L 387.591058 196.881537 
L 386.217671 194.771646 
L 384.585753 192.854701 
L 382.722098 191.16218 
L 380.65731 189.721873 
L 378.425291 188.55743 
L 376.062692 187.687971 
L 373.608305 187.127774 
L 371.102432 186.886035 
L 368.58622 186.966725 
L 366.100984 187.368519 
L 363.687533 188.084819 
L 361.385494 189.103863 
L 359.232667 190.408919 
L 357.264401 191.978558 
L 355.513017 193.787007 
L 354.00727 195.80457 
L 352.771886 197.99812 
L 351.827149 200.331638 
L 351.188572 202.766809 
L 350.866641 205.263646 
L 350.866641 207.781152 
L 351.188572 210.277989 
L 351.827149 212.713159 
L 352.771886 215.046677 
L 354.00727 217.240227 
L 355.513017 219.25779 
L 357.264401 221.066239 
L 359.232667 222.635878 
L 361.385494 223.940934 
L 363.687533 224.959979 
L 366.100984 225.676279 
L 368.58622 226.078072 
L 371.102432 226.158762 
L 373.608305 225.917024 
L 376.062692 225.356826 
L 378.425291 224.487368 
L 380.65731 223.322925 
L 382.722098 221.882618 
L 384.585753 220.190097 
L 386.217671 218.273152 
L 387.591058 216.16326 
L 388.683363 213.895066 
L 389.47665 211.505813 
L 389.957893 209.034732 
L 390.11919 206.522399 
z
" clip-path="url(#ped76a933d6)" style="fill: #0072bc; stroke: #000000; stroke-linejoin: miter"/>
   </g>
   <g id="text_13">
    <!-- Gal -->
    <g transform="translate(311.533359 209.640055) scale(0.12 -0.12)">
     <defs>
      <path id="DejaVuSans-2a" d="M 3809 666 
L 3809 1919 
L 2778 1919 
L 2778 2438 
L 4434 2438 
L 4434 434 
Q 4069 175 3628 42 
Q 3188 -91 2688 -91 
Q 1594 -91 976 548 
Q 359 1188 359 2328 
Q 359 3472 976 4111 
Q 1594 4750 2688 4750 
Q 3144 4750 3555 4637 
Q 3966 4525 4313 4306 
L 4313 3634 
Q 3963 3931 3569 4081 
Q 3175 4231 2741 4231 
Q 1884 4231 1454 3753 
Q 1025 3275 1025 2328 
Q 1025 1384 1454 906 
Q 1884 428 2741 428 
Q 3075 428 3337 486 
Q 3600 544 3809 666 
z
" transform="scale(0.015625)"/>
      <path id="DejaVuSans-44" d="M 2194 1759 
Q 1497 1759 1228 1600 
Q 959 1441 959 1056 
Q 959 750 1161 570 
Q 1363 391 1709 391 
Q 2188 391 2477 730 
Q 2766 1069 2766 1631 
L 2766 1759 
L 2194 1759 
z
M 3341 1997 
L 3341 0 
L 2766 0 
L 2766 531 
Q 2569 213 2275 61 
Q 1981 -91 1556 -91 
Q 1019 -91 701 211 
Q 384 513 384 1019 
Q 384 1609 779 1909 
Q 1175 2209 1959 2209 
L 2766 2209 
L 2766 2266 
Q 2766 2663 2505 2880 
Q 2244 3097 1772 3097 
Q 1472 3097 1187 3025 
Q 903 2953 641 2809 
L 641 3341 
Q 956 3463 1253 3523 
Q 1550 3584 1831 3584 
Q 2591 3584 2966 3190 
Q 3341 2797 3341 1997 
z
" transform="scale(0.015625)"/>
      <path id="DejaVuSans-4f" d="M 603 4863 
L 1178 4863 
L 1178 0 
L 603 0 
L 603 4863 
z
" transform="scale(0.015625)"/>
     </defs>
     <use xlink:href="#DejaVuSans-2a"/>
     <use xlink:href="#DejaVuSans-44" transform="translate(77.484375 0)"/>
     <use xlink:href="#DejaVuSans-4f" transform="translate(138.765625 0)"/>
    </g>
   </g>
   <g id="text_14">
    <!-- Glc -->
    <g transform="translate(390.11919 209.640055) scale(0.12 -0.12)">
     <defs>
      <path id="DejaVuSans-46" d="M 3122 3366 
L 3122 2828 
Q 2878 2963 2633 3030 
Q 2388 3097 2138 3097 
Q 1578 3097 1268 2742 
Q 959 2388 959 1747 
Q 959 1106 1268 751 
Q 1578 397 2138 397 
Q 2388 397 2633 464 
Q 2878 531 3122 666 
L 3122 134 
Q 2881 22 2623 -34 
Q 2366 -91 2075 -91 
Q 1284 -91 818 406 
Q 353 903 353 1747 
Q 353 2603 823 3093 
Q 1294 3584 2113 3584 
Q 2378 3584 2631 3529 
Q 2884 3475 3122 3366 
z
" transform="scale(0.015625)"/>
     </defs>
     <use xlink:href="#DejaVuSans-2a"/>
     <use xlink:href="#DejaVuSans-4f" transform="translate(77.484375 0)"/>
     <use xlink:href="#DejaVuSans-46" transform="translate(105.265625 0)"/>
    </g>
   </g>
  </g>
 </g>
 <defs>
  <clipPath id="p7dbaa4e66f">
   <rect x="7.2" y="7.2" width="669.6" height="57.364797"/>
  </clipPath>
  <clipPath id="ped76a933d6">
   <rect x="266.388891" y="184.922399" width="129.622218" height="43.2"/>
  </clipPath>
 </defs>
</svg>
